<?xml version="1.0" encoding="UTF-8" standalone="no"?>
<!-- Created with Inkscape (http://www.inkscape.org/) -->

<svg
   width="186mm"
   height="186mm"
   viewBox="0 0 186 186"
   version="1.1"
   id="svg1"
   sodipodi:docname="FlaggedBooks_favicon.svg"
   inkscape:version="1.4.2 (ebf0e940, 2025-05-08)"
   xmlns:inkscape="http://www.inkscape.org/namespaces/inkscape"
   xmlns:sodipodi="http://sodipodi.sourceforge.net/DTD/sodipodi-0.dtd"
   xmlns="http://www.w3.org/2000/svg"
   xmlns:svg="http://www.w3.org/2000/svg">
  <sodipodi:namedview
     id="namedview1"
     pagecolor="#ffffff"
     bordercolor="#000000"
     borderopacity="0.25"
     inkscape:showpageshadow="2"
     inkscape:pageopacity="0.0"
     inkscape:pagecheckerboard="0"
     inkscape:deskcolor="#d1d1d1"
     inkscape:document-units="mm"
     inkscape:zoom="0.89911973"
     inkscape:cx="248.02036"
     inkscape:cy="419.299"
     inkscape:window-width="1624"
     inkscape:window-height="997"
     inkscape:window-x="56"
     inkscape:window-y="25"
     inkscape:window-maximized="1"
     inkscape:current-layer="layer1" />
  <defs
     id="defs1" />
  <g
     id="layer1">
    <g
       id="g7"
       transform="matrix(-0.43271421,0,0,-0.43271421,709.64477,214.77806)">
      <path
         id="path7-7-7"
         style="fill:#ff2b00;stroke-width:0.806947"
         d="m 1350,277.5 a 70,37.5 0 0 1 -70,37.5 70,37.5 0 0 1 -70,-37.5 70,37.5 0 0 1 70,-37.5 70,37.5 0 0 1 70,37.5 z" />
      <path
         id="rect2-8-0"
         style="fill:#ff2b00;fill-opacity:1;stroke-width:0.799691"
         d="m 1210.0001,-459.99219 c 0,20.71068 31.3401,37.49219 70,37.49219 38.6471,0 69.9819,-16.77861 70,-37.48242 V -277.5 h -140 z"
         transform="matrix(1,0,0,-1,-8e-6,0)" />
    </g>
    <g
       id="g9"
       transform="matrix(0.43271421,0,0,0.43271421,-454.34988,-112.50569)">
      <path
         id="path7"
         style="display:inline;opacity:1;fill:#242424;stroke-width:0.806947"
         d="m 1190,297.5 a 70,37.5 0 0 1 -70,37.5 70,37.5 0 0 1 -70,-37.5 70,37.5 0 0 1 70,-37.5 70,37.5 0 0 1 70,37.5 z" />
      <path
         id="rect2"
         style="display:inline;opacity:1;fill:#242424;fill-opacity:1;stroke-width:0.799691"
         d="M 1049.9999,-297.5 V -480 c 0,20.71068 31.3401,37.5 70,37.5 38.6599,0 70,-16.78932 70,-37.5 v 182.5 z"
         transform="scale(1,-1)" />
    </g>
    <g
       id="g8"
       transform="matrix(0.43271421,0,0,0.43271421,-454.34988,-112.50569)">
      <path
         id="path7-7"
         style="display:inline;fill:#242424;stroke-width:0.806947"
         d="m 1340,297.5 a 70,37.5 0 0 1 -70,37.5 70,37.5 0 0 1 -70,-37.5 70,37.5 0 0 1 70,-37.5 70,37.5 0 0 1 70,37.5 z" />
      <path
         id="rect2-8"
         style="fill:#242424;fill-opacity:1;stroke-width:0.799691"
         d="M 1199.9999,-297.5 V -480 c 0,20.71068 31.3401,37.5 70,37.5 38.6599,0 70,-16.78932 70,-37.5 v 182.5 z"
         transform="scale(1,-1)" />
    </g>
    <path
       id="rect1"
       style="display:inline;fill:#242424;stroke-width:0.68429"
       transform="scale(1,-1)"
       d="M 0.01267237,-186.06714 H 7.1227602 V -15.14502 H 0.01267237 Z" />
    <path
       id="rect1-9"
       style="display:inline;fill:#242424;stroke-width:0.68429"
       d="m 64.907129,186 h 7.110088 V 15.077877 h -7.110088 z" />
  </g>
</svg>
