<?xml version="1.0" encoding="UTF-8" standalone="no"?>
<!-- Created with Inkscape (http://www.inkscape.org/) -->

<svg
   width="1920"
   height="703.25098"
   viewBox="0 0 1920 703.25097"
   version="1.1"
   id="svg1"
   xml:space="preserve"
   sodipodi:docname="FlaggedBooks_logo.svg"
   inkscape:version="1.4.2 (ebf0e940, 2025-05-08)"
   xmlns:inkscape="http://www.inkscape.org/namespaces/inkscape"
   xmlns:sodipodi="http://sodipodi.sourceforge.net/DTD/sodipodi-0.dtd"
   xmlns="http://www.w3.org/2000/svg"
   xmlns:svg="http://www.w3.org/2000/svg"><sodipodi:namedview
     id="namedview1"
     pagecolor="#ffffff"
     bordercolor="#000000"
     borderopacity="0.25"
     inkscape:showpageshadow="2"
     inkscape:pageopacity="0.0"
     inkscape:pagecheckerboard="0"
     inkscape:deskcolor="#d1d1d1"
     inkscape:zoom="0.36152187"
     inkscape:cx="641.73157"
     inkscape:cy="309.80145"
     inkscape:window-width="1624"
     inkscape:window-height="997"
     inkscape:window-x="56"
     inkscape:window-y="25"
     inkscape:window-maximized="1"
     inkscape:current-layer="svg1" /><defs
     id="defs1" /><g
     id="layer1"
     transform="matrix(1.6354553,0,0,1.6354553,-500.44902,-425.21837)"><path
       style="font-weight:500;font-size:200px;font-family:Fustat;-inkscape-font-specification:'Fustat Medium';fill:#ff2b00"
       d="m 305.99999,485.00024 v -140 h 17 v 140 z m 8.8,-61.6 v -16.6 h 72.2 v 16.6 z m 0,-62 v -16.4 h 78.2 v 16.4 z m 100.60001,123.6 v -144 l 16.4,-2 0.6,1.6 v 144.4 z m 77.00007,2.6 q -10.4,0 -18.6,-4 -8,-4 -12.6,-11 -4.6,-7.2 -4.6,-16.4 0,-13.2 9.4,-21.4 9.6,-8.2 26.4,-9.6 l 38.6,-2.8 v 15.2 l -35.2,2.8 q -11,0.8 -16.4,4.8 -5.2,3.8 -5.2,10.8 0,6.6 5.6,11 5.6,4.4 14.4,4.4 9,0 16.4,-4.2 7.4,-4.2 11.6,-11.2 4.4,-7 4.4,-15.6 v -16.2 q 0,-11.4 -7.2,-18.8 -7,-7.4 -18.8,-7.4 -9.2,0 -15.8,4.6 -6.6,4.4 -9,12.4 h -2.2 l -14.8,-4.8 q 4.4,-13.4 15.4,-20.8 11,-7.4 26.6,-7.4 20.4,0 31.4,12.2 11.2,12.2 11.2,34.4 v 56.4 h -16 v -29.2 l 6,3.2 q -2.4,8.2 -8.6,14.8 -6,6.4 -14.4,10.2 -8.2,3.6 -18,3.6 z m 108.99997,37.4 q -19.6,0 -30.6,-8 -11,-8 -11,-21.6 0,-8.6 4.2,-15.2 4.4,-6.8 12.8,-10.4 l 8.6,8.6 q -4.4,2 -6.8,5.8 -2.4,3.8 -2.4,8.2 0,7.6 6,12.4 6.2,5 17.4,5 h 14 q 11.6,0 18.2,-4 6.6,-3.8 6.6,-11.4 0,-5.4 -4.4,-8.6 -4.2,-3.2 -12.6,-3.2 h -27 q -8,0 -14.6,-2.8 -6.4,-3 -10.2,-8 -3.8,-5.2 -3.8,-12 0,-6.6 4,-12.2 4,-5.6 12.4,-8.8 l 9.4,8.4 q -5.4,1 -7.8,4 -2.2,2.8 -2.2,6.6 0,4.6 3.8,7.2 3.8,2.6 10.4,2.6 h 26.2 q 15,0 23.8,7.4 8.8,7.4 8.8,19.4 0,14.2 -11.2,22.4 -11.2,8.2 -30,8.2 z m 6.6,-71.4 q -11.8,0 -21,-4.6 -9,-4.6 -14,-12.6 -5,-8.2 -5,-18.6 0,-10.6 5,-18.6 5,-8 14,-12.4 9.2,-4.6 21,-4.6 12,0 20.8,4.6 9,4.4 14,12.4 5.2,8 5.2,18.6 0,10.4 -5.2,18.6 -5,8 -14,12.6 -8.8,4.6 -20.8,4.6 z m 0,-14.8 q 10.6,0 17.2,-5.8 6.6,-5.8 6.6,-15.2 0,-9.2 -6.6,-15 -6.6,-5.8 -17.2,-5.8 -10.8,0 -17.4,5.8 -6.4,5.8 -6.4,15 0,9.4 6.4,15.2 6.6,5.8 17.4,5.8 z m 27.4,-41.4 -11.2,-7 q 0,-7.8 3.2,-14 3.4,-6.2 8.8,-9.6 5.4,-3.6 12.2,-3.6 1.6,0 3.4,0.2 2,0 3,0.4 v 15.4 l -1,2.2 q -2,-0.6 -4.8,-0.6 -6.8,0 -10.2,4.6 -3.4,4.6 -3.4,12 z m 70.39987,127.6 q -19.6,0 -30.6,-8 -11,-8 -11,-21.6 0,-8.6 4.2,-15.2 4.4,-6.8 12.8,-10.4 l 8.6,8.6 q -4.4,2 -6.8,5.8 -2.4,3.8 -2.4,8.2 0,7.6 6,12.4 6.2,5 17.4,5 h 14 q 11.6,0 18.2,-4 6.6,-3.8 6.6,-11.4 0,-5.4 -4.4,-8.6 -4.2,-3.2 -12.6,-3.2 h -27 q -8,0 -14.6,-2.8 -6.4,-3 -10.2,-8 -3.8,-5.2 -3.8,-12 0,-6.6 4,-12.2 4,-5.6 12.4,-8.8 l 9.4,8.4 q -5.4,1 -7.8,4 -2.2,2.8 -2.2,6.6 0,4.6 3.8,7.2 3.8,2.6 10.4,2.6 h 26.2 q 15,0 23.8,7.4 8.8,7.4 8.8,19.4 0,14.2 -11.2,22.4 -11.2,8.2 -30,8.2 z m 6.6,-71.4 q -11.8,0 -21,-4.6 -9,-4.6 -14,-12.6 -5,-8.2 -5,-18.6 0,-10.6 5,-18.6 5,-8 14,-12.4 9.2,-4.6 21,-4.6 12,0 20.8,4.6 9,4.4 14,12.4 5.2,8 5.2,18.6 0,10.4 -5.2,18.6 -5,8 -14,12.6 -8.8,4.6 -20.8,4.6 z m 0,-14.8 q 10.6,0 17.2,-5.8 6.6,-5.8 6.6,-15.2 0,-9.2 -6.6,-15 -6.6,-5.8 -17.2,-5.8 -10.8,0 -17.4,5.8 -6.4,5.8 -6.4,15 0,9.4 6.4,15.2 6.6,5.8 17.4,5.8 z m 27.4,-41.4 -11.2,-7 q 0,-7.8 3.2,-14 3.4,-6.2 8.8,-9.6 5.4,-3.6 12.2,-3.6 1.6,0 3.4,0.2 2,0 3,0.4 v 15.4 l -1,2.2 q -2,-0.6 -4.8,-0.6 -6.8,0 -10.2,4.6 -3.4,4.6 -3.4,12 z m 78.59982,90.2 q -14.6,0 -25.8,-6.6 -11.2,-6.8 -17.6,-18.6 -6.2,-11.8 -6.2,-27.6 0,-15.6 6.2,-27.4 6.2,-12 17.2,-18.6 11.2,-6.6 25.6,-6.6 14.2,0 24.8,6.8 10.8,6.6 16.8,18.8 6,12.2 6,28.4 v 2.4 l -3,2.8 h -84.2 v -15.8 h 78 l -8,3.2 q -0.6,-9.6 -4.8,-16.4 -4.2,-6.8 -10.8,-10.4 -6.6,-3.8 -14.8,-3.8 -8.8,0 -16.2,4.4 -7.4,4.2 -11.6,12 -4.2,7.8 -4.2,18 v 4 q 0,10 4.2,18 4.2,7.8 11.6,12.4 7.4,4.6 16.8,4.6 9.2,0 16,-4.4 6.8,-4.6 10.6,-12.4 h 2.4 l 14,6.2 q -5.6,12.4 -17,19.6 -11.2,7 -26,7 z m 110.20019,0 q -13.4,0 -24.2,-6.8 -10.8,-6.8 -17.2,-18.6 -6.2,-12 -6.2,-27.4 0,-15.2 6.2,-27 6.4,-12 17.2,-18.8 10.8,-6.8 24.2,-6.8 10.4,0 19,4.2 8.8,4.2 14.8,11.6 6.2,7.2 9,16.8 v 40.2 q -2.8,9.4 -9,16.8 -6,7.4 -14.8,11.6 -8.6,4.2 -19,4.2 z m 1.2,-16.2 q 9.8,0 17.2,-4.6 7.4,-4.8 11.6,-13 4.4,-8.2 4.4,-19 0,-10.8 -4.4,-19 -4.2,-8.2 -11.6,-12.8 -7.4,-4.6 -17.2,-4.6 -9,0 -16.4,4.6 -7.2,4.6 -11.4,12.8 -4,8.2 -4,19 0,10.8 4,19 4.2,8.2 11.4,13 7.4,4.6 16.4,4.6 z m 33.8,13.6 v -35.8 l 3,-14.4 -3.8,-14.2 v -79.6 l 16.6,-2 0.6,1.6 v 144.4 z"
       id="text1"
       aria-label="Flagged" /><path
       style="font-size:200px;font-family:Fustat;-inkscape-font-specification:Fustat;fill:#242424"
       d="m 470.5996,687.60016 v -14.8 h 43.2 q 13.4,0 20.2,-7 6.8,-7.2 6.8,-19.6 0,-12 -7.2,-18.8 -7.2,-6.8 -19.8,-6.8 h -43.2 v -14.6 h 39.6 q 7.4,0 12.8,-2.8 5.4,-2.8 8.2,-7.6 3,-5 3,-11.4 0,-9.6 -6.2,-15.6 -6,-6.2 -17.8,-6.2 h -39.6 v -14.8 h 39.6 q 19,0 29.6,10.4 10.6,10.2 10.6,26.2 0,6.8 -3.4,13.2 -3.2,6.2 -8.8,10.8 -5.4,4.4 -12.2,6.4 v -4.8 q 8.6,1.4 15.6,6.8 7,5.2 11.2,13 4.2,7.6 4.2,16.6 0,18.8 -11.4,30.2 -11.4,11.2 -31.8,11.2 z m -8.6,0 v -140 h 15 v 140 z m 160.19987,2.4 q -14.4,0 -25.6,-6.6 -11,-6.6 -17.4,-18.4 -6.2,-11.8 -6.2,-27.4 0,-15.6 6.2,-27.4 6.4,-11.8 17.4,-18.4 11.2,-6.6 25.6,-6.6 14.6,0 25.6,6.6 11,6.6 17.2,18.4 6.4,11.8 6.4,27.4 0,15.6 -6.4,27.4 -6.2,11.8 -17.2,18.4 -11,6.6 -25.6,6.6 z m 0,-14.6 q 10,0 17.6,-4.6 7.8,-4.8 12.2,-13.2 4.4,-8.6 4.4,-20 0,-11.6 -4.4,-20 -4.4,-8.4 -12.2,-13 -7.6,-4.8 -17.6,-4.8 -10,0 -17.8,4.8 -7.6,4.6 -12,13 -4.4,8.4 -4.4,20 0,11.4 4.4,20 4.4,8.4 12,13.2 7.8,4.6 17.8,4.6 z m 114.4001,14.6 q -14.4,0 -25.6,-6.6 -11,-6.6 -17.4,-18.4 -6.2,-11.8 -6.2,-27.4 0,-15.6 6.2,-27.4 6.4,-11.8 17.4,-18.4 11.2,-6.6 25.6,-6.6 14.6,0 25.6,6.6 11,6.6 17.2,18.4 6.4,11.8 6.4,27.4 0,15.6 -6.4,27.4 -6.2,11.8 -17.2,18.4 -11,6.6 -25.6,6.6 z m 0,-14.6 q 10,0 17.6,-4.6 7.8,-4.8 12.2,-13.2 4.4,-8.6 4.4,-20 0,-11.6 -4.4,-20 -4.4,-8.4 -12.2,-13 -7.6,-4.8 -17.6,-4.8 -10,0 -17.8,4.8 -7.6,4.6 -12,13 -4.4,8.4 -4.4,20 0,11.4 4.4,20 4.4,8.4 12,13.2 7.8,4.6 17.8,4.6 z m 78.20008,-8.4 v -19.8 l 61.6,-59.6 h 17.8 v 1.6 z m -6,20.6 v -144 l 14.4,-1.8 0.6,1.6 v 144.2 z m 68.8,0 -37,-52.2 9.8,-10 43.8,60.6 v 1.6 z m 62.60018,2.4 q -15.4,0 -26,-7.4 -10.6,-7.6 -14,-21.2 l 13.8,-3.4 2.2,0.4 q 2.2,8 9.2,12.6 7,4.4 16.4,4.4 9.4,0 16,-4.2 6.8,-4.4 6.8,-11.4 0,-5.8 -4,-9.2 -3.8,-3.6 -11.6,-5.4 l -18.4,-4.2 q -14,-3.2 -20.6,-10.2 -6.4,-7.2 -6.4,-17 0,-8.4 4.6,-14.8 4.6,-6.4 12.6,-10 8.2,-3.8 18.6,-3.8 15.2,0 25.6,7.6 10.4,7.6 13.8,21.4 l -14,3 -2.2,-0.4 q -2,-8.2 -8.8,-12.6 -6.6,-4.4 -14.8,-4.4 -8.6,0 -14.4,3.8 -5.6,3.8 -5.6,9.6 0,5 3.6,8.4 3.8,3.2 12,5 l 18.6,4.2 q 13.8,3.2 20.2,10.2 6.6,7 6.6,17.8 0,9.6 -5.2,16.6 -5.2,7 -14.2,10.8 -8.8,3.8 -20.4,3.8 z"
       id="text1-0"
       aria-label="Books" /><g
       id="g7"
       transform="rotate(180,1344.9924,378.17546)"><path
         id="path7-7-7"
         style="fill:#ff2b00;stroke-width:0.806947"
         d="m 1350,277.5 a 70,37.5 0 0 1 -70,37.5 70,37.5 0 0 1 -70,-37.5 70,37.5 0 0 1 70,-37.5 70,37.5 0 0 1 70,37.5 z" /><path
         id="rect2-8-0"
         style="fill:#ff2b00;fill-opacity:1;stroke-width:0.799691"
         d="m 1210.0001,-459.99219 c 0,20.71068 31.3401,37.49219 70,37.49219 38.6471,0 69.9819,-16.77861 70,-37.48242 V -277.5 h -140 z"
         transform="matrix(1,0,0,-1,-8e-6,0)" /></g><g
       id="g9"><path
         id="path7"
         style="display:inline;opacity:1;fill:#242424;stroke-width:0.806947"
         d="m 1190,297.5 a 70,37.5 0 0 1 -70,37.5 70,37.5 0 0 1 -70,-37.5 70,37.5 0 0 1 70,-37.5 70,37.5 0 0 1 70,37.5 z" /><path
         id="rect2"
         style="display:inline;opacity:1;fill:#242424;fill-opacity:1;stroke-width:0.799691"
         d="M 1049.9999,-297.5 V -480 c 0,20.71068 31.3401,37.5 70,37.5 38.6599,0 70,-16.78932 70,-37.5 v 182.5 z"
         transform="scale(1,-1)" /></g><g
       id="g8"><path
         id="path7-7"
         style="display:inline;fill:#242424;stroke-width:0.806947"
         d="m 1340,297.5 a 70,37.5 0 0 1 -70,37.5 70,37.5 0 0 1 -70,-37.5 70,37.5 0 0 1 70,-37.5 70,37.5 0 0 1 70,37.5 z" /><path
         id="rect2-8"
         style="fill:#242424;fill-opacity:1;stroke-width:0.799691"
         d="M 1199.9999,-297.5 V -480 c 0,20.71068 31.3401,37.5 70,37.5 38.6599,0 70,-16.78932 70,-37.5 v 182.5 z"
         transform="scale(1,-1)" /></g><path
       id="rect1"
       style="display:inline;opacity:1;fill:#242424;stroke-width:1.58139"
       transform="scale(1,-1)"
       d="m 1050.0292,-690 h 16.4313 v 395 h -16.4313 z" /><path
       id="rect1-0"
       style="display:inline;fill:#242424;stroke-width:1.58139"
       d="m 1199.9999,690.00317 h 16.4313 v -395 h -16.4313 z" /></g></svg>
